<svg xmlns="http://www.w3.org/2000/svg" x="0px" y="0px" fill='#fff' viewBox="0 0 50 50" style="enable-background:new 0 0 50 50;" xml:space="preserve"><g>	<path d="M44.6,0.5H5.4c-2.7,0-4.9,2.2-4.9,4.9v39.2c0,2.7,2.2,4.9,4.9,4.9h39.2c2.7,0,4.9-2.2,4.9-4.9V5.4  C49.5,2.7,47.3,0.5,44.6,0.5z M46.2,44.6c0,0.9-0.7,1.6-1.6,1.6H5.4c-0.9,0-1.6-0.7-1.6-1.6V5.4c0-0.9,0.7-1.6,1.6-1.6h39.2  c0.9,0,1.6,0.7,1.6,1.6V44.6z"></path>	<path d="M10.2,11.5c0.9,0,1.6-0.7,1.6-1.6c0-0.9-0.7-1.6-1.6-1.6H9.9C9,8.2,8.2,8.9,8.2,9.8c0,0.9,0.7,1.6,1.6,1.6H10.2z"></path>	<path d="M15.7,11.5h0.4c0.9,0,1.6-0.7,1.6-1.6c0-0.9-0.7-1.6-1.6-1.6h-0.4c-0.9,0-1.6,0.7-1.6,1.6C14.1,10.7,14.8,11.5,15.7,11.5z"></path>	<path d="M40.1,8.2h-3.2c-0.9,0-1.6,0.7-1.6,1.6c0,0.9,0.7,1.6,1.6,1.6h3.2c0.9,0,1.6-0.7,1.6-1.6C41.8,8.9,41,8.2,40.1,8.2z"></path>	<path d="M38.8,19.6H11.2c-0.9,0-1.6,0.7-1.6,1.6c0,0.9,0.7,1.6,1.6,1.6h27.6c0.9,0,1.6-0.7,1.6-1.6C40.5,20.3,39.7,19.6,38.8,19.6  L38.8,19.6z"></path>	<path d="M38.8,27.2H11.2c-0.9,0-1.6,0.7-1.6,1.6s0.7,1.6,1.6,1.6h27.6c0.9,0,1.6-0.7,1.6-1.6C40.5,27.9,39.7,27.2,38.8,27.2  L38.8,27.2z"></path>	<path d="M25,34.8H11.2c-0.9,0-1.6,0.7-1.6,1.6s0.7,1.6,1.6,1.6H25c0.9,0,1.6-0.7,1.6-1.6C26.6,35.6,25.9,34.8,25,34.8z"></path></g></svg>