<svg xmlns="http://www.w3.org/2000/svg" x="0px" y="0px" fill='#fff' viewBox="0 0 50 50" style="enable-background:new 0 0 50 50;" xml:space="preserve"><g>	<path d="M19.9,40.9c-1,0-1.8,0.8-1.8,1.8c0,1,0.8,1.8,1.8,1.8c1,0,1.8-0.8,1.8-1.8C21.7,41.7,20.9,40.9,19.9,40.9z M14.6,42.7  c0-2.9,2.4-5.3,5.3-5.3c2.9,0,5.3,2.4,5.3,5.3c0,2.9-2.4,5.3-5.3,5.3C17,48,14.6,45.6,14.6,42.7z"></path>	<path d="M36.4,40.9c-1,0-1.8,0.8-1.8,1.8c0,1,0.8,1.8,1.8,1.8c1,0,1.8-0.8,1.8-1.8C38.2,41.7,37.4,40.9,36.4,40.9z M31.1,42.7  c0-2.9,2.4-5.3,5.3-5.3s5.3,2.4,5.3,5.3c0,2.9-2.4,5.3-5.3,5.3C33.5,48,31.1,45.6,31.1,42.7z"></path>	<path d="M0.5,3.8c0-1,0.8-1.8,1.8-1.8h2.8c1.9,0,3.6,1.3,4,3.2L10,9.1h33c4.3,0,7.4,4.2,6.2,8.4L45,31.6c-0.8,2.7-3.3,4.6-6.2,4.6  h-21c-3,0-5.6-2.1-6.3-5L5.7,6C5.6,5.7,5.4,5.5,5.1,5.5H2.3C1.3,5.5,0.5,4.7,0.5,3.8L0.5,3.8z M10.8,12.6l4.1,17.8  c0.3,1.3,1.5,2.3,2.9,2.3h21c1.3,0,2.4-0.9,2.8-2.1l4.2-14.2c0.6-1.9-0.8-3.8-2.8-3.8L10.8,12.6z"></path></g></svg>