<svg xmlns="http://www.w3.org/2000/svg" x="0px" y="0px" fill='#fff' viewBox="0 0 50 50" style="enable-background:new 0 0 50 50;" xml:space="preserve"><g>	<path d="M28.4,25.4c-5.3,0-9.6,4.3-9.6,9.6c0,0.3,0,0.6,0,0.9c0.1,0.8,0.7,1.3,1.5,1.3h16.2c0.8,0,1.4-0.6,1.5-1.3  c0-0.3,0-0.6,0-0.9C38,29.7,33.7,25.4,28.4,25.4L28.4,25.4z M28.4,28.1c3.6,0,6.5,2.8,6.8,6.3H21.6C21.9,30.9,24.8,28.1,28.4,28.1  L28.4,28.1z"></path>	<path d="M40.2,3.1H15c-3.7,0-7,2.2-8.5,5.5H4.3c-2.1,0-3.8,1.7-3.8,3.8s1.7,3.8,3.8,3.8h1.3l0,4.9H4.3c-2.1,0-3.8,1.7-3.8,3.8  s1.7,3.8,3.8,3.8h1.3v4.9H4.3c-2.1,0-3.8,1.7-3.8,3.8s1.7,3.8,3.8,3.8h2.1c1.5,3.3,4.8,5.5,8.5,5.5h25.2c5.1,0,9.3-4.2,9.3-9.3  l0-25.2C49.5,7.3,45.3,3.1,40.2,3.1L40.2,3.1z M3.1,12.4c0-0.7,0.6-1.2,1.2-1.2h3h0h2.8c0.7,0,1.2,0.6,1.2,1.2  c0,0.7-0.6,1.2-1.2,1.2H4.3C3.7,13.7,3.1,13.1,3.1,12.4z M3.1,25c0-0.7,0.6-1.2,1.2-1.2h5.8c0.7,0,1.2,0.6,1.2,1.2  c0,0.7-0.6,1.2-1.2,1.2H4.3C3.7,26.2,3.1,25.7,3.1,25z M3.1,37.6c0-0.7,0.6-1.2,1.2-1.2h5.8c0.7,0,1.2,0.6,1.2,1.2  c0,0.7-0.6,1.2-1.2,1.2H4.3C3.7,38.8,3.1,38.3,3.1,37.6z M46.9,37.6c0,3.7-3,6.7-6.7,6.7H15c-2.3,0-4.3-1.1-5.5-2.9h0.7  c2.1,0,3.8-1.7,3.8-3.8c0-2.1-1.7-3.8-3.8-3.8H8.3v-4.9h1.9c2.1,0,3.8-1.7,3.8-3.8s-1.7-3.8-3.8-3.8H8.3v-4.9h1.9  c2.1,0,3.8-1.7,3.8-3.8s-1.7-3.8-3.8-3.8H9.5c1.2-1.8,3.3-2.9,5.5-2.9h25.2c3.7,0,6.7,3,6.7,6.7L46.9,37.6z"></path>	<path d="M28.4,24.5c3.2,0,5.8-2.6,5.8-5.8c0-3.2-2.6-5.8-5.8-5.8c-3.2,0-5.8,2.6-5.8,5.8C22.6,21.9,25.2,24.5,28.4,24.5z   M28.4,15.6c1.7,0,3.1,1.4,3.1,3.1c0,1.7-1.4,3.1-3.1,3.1c-1.7,0-3.1-1.4-3.1-3.1C25.3,17,26.7,15.6,28.4,15.6z"></path></g></svg>