<svg xmlns="http://www.w3.org/2000/svg" x="0px" y="0px" viewBox="0 0 49 49" style="enable-background:new 0 0 49 49;" fill='#fff' xml:space="preserve"><g>	<path d="M36.4,6.4c0.7,0,1.2-0.5,1.2-1.2V2.7h5.2V11c0,1.6,2.4,1.6,2.5,0V2.4c0-1.2-1-2.2-2.2-2.2h-5.8c-1.2,0-2.2,1-2.2,2.2v2.8  C35.1,5.9,35.7,6.4,36.4,6.4L36.4,6.4z"></path>	<path d="M48.2,19.5l-21.2-16c-1.4-1.1-3.4-1.1-4.8,0l-21.2,16c-1.6,1.2-0.7,3.9,1.3,3.9h3.1v23.2c0,1.2,1,2.2,2.2,2.2h9.4  c1.2,0,2.1-1,2.1-2.2V33.5H22c1.6,0,1.6-2.4,0-2.5h-3.4c-1.2,0-2.2,1-2.2,2.2v13.1H7.7V22.2c0-0.7-0.5-1.2-1.2-1.2H3L23.6,5.5  c0.6-0.4,1.3-0.4,1.9,0L46,21h-3.4c-0.7,0-1.2,0.5-1.2,1.2v24.2h-8.8V33.2c0-1.2-1-2.2-2.2-2.2h-3.4c-1.6,0-1.6,2.4,0,2.5h3.1v13.1  c0,1.2,1,2.2,2.1,2.2h9.4c1.2,0,2.2-1,2.2-2.2V23.4h3.1C48.9,23.5,49.8,20.7,48.2,19.5L48.2,19.5z"></path>	<path d="M30.7,18.2c-0.3-8.2-12.1-8.2-12.4,0c0,2.3,2.5,6.2,4.7,9c0.4,0.5,0.9,0.7,1.5,0.7c0.6,0,1.1-0.3,1.5-0.7  C28.1,24.4,30.7,20.6,30.7,18.2L30.7,18.2z M24.5,25.1c-2.3-3.1-3.7-5.8-3.7-6.9c0-2.1,1.7-3.7,3.7-3.7c2.1,0,3.7,1.7,3.7,3.7  C28.2,19.4,26.8,22,24.5,25.1z"></path>	<path d="M24.5,16.5c-1.8,0-1.8,2.8,0,2.8C26.3,19.3,26.3,16.5,24.5,16.5z"></path></g></svg>