<svg xmlns="http://www.w3.org/2000/svg" x="0px" y="0px" viewBox="0 0 187 33" style="enable-background:new 0 0 187 33;" xml:space="preserve"><style type="text/css">	.wdt-custom-main-logo-class-name-1-demo-2{fill:#FFFFFF;}	.wdt-custom-main-logo-class-name-2-demo-2{fill:url(#wdt-custom-main-logo-id-name-1-demo-2);}</style><g>	<path class="wdt-custom-main-logo-class-name-1-demo-2" d="M78.8,1h-5.6v31.8h5.6V1z"></path>	<path class="wdt-custom-main-logo-class-name-1-demo-2" d="M116,4.4C112.6,2,108.5,1,102.7,1H86.6l8.1,5.4h8c2.5,0,4.2,0.1,6.5,0.9c1.2,0.4,2.2,0.9,3.1,1.7  c1.8,1.6,2.9,4.6,2.9,8c-0.2,5.3-2.2,8.4-6,9.6c-2.3,0.7-4,0.9-6.5,0.9H92.2V11.6l-5.6-3.4v24.6h16.1c5.8,0,9.9-1,13.4-3.3  c3.4-2.3,5.3-6.7,5.3-12.6C121.3,11,119.5,6.7,116,4.4L116,4.4z"></path>	<path class="wdt-custom-main-logo-class-name-1-demo-2" d="M130.8,6.4h11.3h6.8L152,1h-27v5.4H130.8z"></path>	<path class="wdt-custom-main-logo-class-name-1-demo-2" d="M130.8,27.4v-8.1h17.4v-5.4h-6.1h-11.3h-5.7v19h27l-3.2-5.4h-18.1V27.4z"></path>	<path class="wdt-custom-main-logo-class-name-1-demo-2" d="M33.1,2.9C29.7,1,25.3,0,20.1,0C13.8,0,8.9,1.6,5.3,4.8c-0.4,0.3-0.7,0.6-1,1l3.2,5.6c0.6-1,1.4-2,2.3-2.8  c2.4-2.1,6-3.2,10.6-3.2c3.3,0,6.6,0.7,10,2L33.1,2.9L33.1,2.9z"></path>	<path class="wdt-custom-main-logo-class-name-1-demo-2" d="M17,13.8l3.2,5.4h10.3v6.6c-3.2,1.2-6.4,1.8-9.8,1.8c-4.9,0-8.4-1-10.8-3.1C9,23.8,8.3,22.9,7.7,22l-0.1-0.1  c0-0.1-0.1-0.1-0.1-0.2L1.1,10.6C0.4,12.4,0,14.4,0,16.5c0,4.8,1.8,8.8,5.3,11.8C9,31.4,14,33,20.2,33c8.8,0,15.6-4.3,15.6-4.3  V13.8H17z"></path>	<path class="wdt-custom-main-logo-class-name-1-demo-2" d="M64.4,27.4H47.8V1h-5.6v31.8h25.4L64.4,27.4z"></path>			<linearGradient id="wdt-custom-main-logo-id-name-1-demo-2" gradientUnits="userSpaceOnUse" x1="184.6528" y1="70.655" x2="173.7268" y2="74.8756" gradientTransform="matrix(1 0 0 1 0 -66)">		<stop offset="0" style="stop-color:#884EAA"></stop>		<stop offset="1" style="stop-color:#6B4ACA"></stop>	</linearGradient>	<path class="wdt-custom-main-logo-class-name-2-demo-2" d="M186.9,1h-6.8l-5.4,7.1l3.4,4.5L186.9,1z"></path>	<path class="wdt-custom-main-logo-class-name-1-demo-2" d="M174.7,16.9l-3.4-4.5L162.5,1h-6.8l12.2,15.9l-12.2,15.9h6.9l8.7-11.4l8.7,11.4h6.9L174.7,16.9z"></path></g></svg>