<svg xmlns="http://www.w3.org/2000/svg" x="0px" y="0px" fill='#fff' viewBox="0 0 50 50" style="enable-background:new 0 0 50 50;" xml:space="preserve"><g>	<path d="M40.8,0.5H9.3c-4.8,0-8.8,3.9-8.8,8.8v21.9c0,4.8,3.9,8.8,8.8,8.8h6.3l8.1,9c0.3,0.4,0.8,0.6,1.3,0.6c0.5,0,1-0.2,1.3-0.6  l8.1-9h6.3c4.8,0,8.8-3.9,8.8-8.8V9.3C49.5,4.5,45.6,0.5,40.8,0.5z M46,31.1c0,2.9-2.4,5.2-5.3,5.2h-7.1c-0.5,0-1,0.2-1.3,0.6  L25,45.1L17.6,37c-0.3-0.4-0.8-0.6-1.3-0.6H9.3C6.4,36.4,4,34,4,31.1V9.3C4,6.4,6.4,4,9.3,4h31.5C43.6,4,46,6.4,46,9.3V31.1z"></path>	<path d="M25.2,8c-4.3,0-7.8,3.5-7.8,7.8c0,1,0.8,1.8,1.8,1.8c1,0,1.8-0.8,1.8-1.8c0-2.4,1.9-4.3,4.3-4.3c2.4,0,4.3,1.9,4.3,4.3  S27.5,20,25.2,20c-1,0-1.7,0.8-1.7,1.8v2.7c0,1,0.8,1.8,1.7,1.8s1.8-0.8,1.8-1.8v-1.2c3.4-0.8,6-3.9,6-7.6C32.9,11.5,29.4,8,25.2,8  z"></path>	<path d="M24.8,28.4c-0.1,0-0.2,0.1-0.3,0.1c-0.1,0-0.2,0.1-0.3,0.2c-0.1,0.1-0.2,0.1-0.3,0.2c-0.3,0.3-0.5,0.8-0.5,1.2  c0,0.5,0.2,0.9,0.5,1.2c0.3,0.3,0.8,0.5,1.2,0.5c0.5,0,0.9-0.2,1.2-0.5c0.3-0.3,0.5-0.8,0.5-1.2c0-0.5-0.2-0.9-0.5-1.2  C26,28.5,25.4,28.3,24.8,28.4z"></path></g></svg>