<svg xmlns="http://www.w3.org/2000/svg" xmlns:xlink="http://www.w3.org/1999/xlink" x="0px" y="0px" viewBox="0 0 100 100" style="enable-background:new 0 0 100 100;" xml:space="preserve"><style type="text/css">	.sticky-count2-icon{fill:url(#sticky-count2-icon1);}</style><linearGradient id="sticky-count2-icon1" gradientUnits="userSpaceOnUse" x1="79.1102" y1="67.8752" x2="17.8832" y2="25.241" gradientTransform="matrix(1 0 0 -1 0 101)">	<stop offset="0" style="stop-color:#884EAA"></stop>	<stop offset="1" style="stop-color:#6B4ACA"></stop></linearGradient><path class="sticky-count2-icon" d="M80.1,16.4c0,3.8-3.1,6.9-6.9,6.9c-1.4,0-2.8-0.4-3.9-1.2l-8.8,8.8c1.7,2.2,2.8,4.9,2.8,7.9 c0,3.2-1.2,6.1-3.1,8.3l3.7,4.1c1.1-0.6,2.3-1,3.6-1c3.8,0,6.9,3.1,6.9,6.9S71.4,64,67.6,64c-3.8,0-6.9-3.1-6.9-6.9 c0-1.5,0.5-2.9,1.3-4.1l-3.7-4.1c-2.1,1.5-4.7,2.5-7.4,2.5c-6.9,0-12.5-5.6-12.5-12.5c0-1.8,0.4-3.4,1-4.9l-9.8-5.5 c-1.9,2.6-5,4.3-8.5,4.3c-5.8,0-10.6-4.8-10.6-10.6c0-5.8,4.8-10.6,10.6-10.6c5.8,0,10.6,4.8,10.6,10.6c0,1.4-0.3,2.8-0.8,4l9.8,5.5 c2.3-3.2,6-5.3,10.2-5.3c3,0,5.7,1,7.9,2.8l8.8-8.8c-0.7-1.1-1.2-2.4-1.2-3.9c0-3.8,3.1-6.9,6.9-6.9S80.1,12.6,80.1,16.4z  M50.8,48.6c5.4,0,9.9-4.4,9.9-9.9c0-5.4-4.4-9.9-9.9-9.9s-9.9,4.4-9.9,9.9S45.4,48.6,50.8,48.6z M50.8,46.1c4,0,7.3-3.3,7.3-7.3 c0-4-3.3-7.3-7.3-7.3c-4,0-7.3,3.3-7.3,7.3C43.5,42.8,46.8,46.1,50.8,46.1z M78.9,88.2l-35.3,2.3c-2,0.1-3.9-0.5-5.5-1.6L6.2,65 c-0.7-0.5-1.1-1.3-1.2-2.2C5,62,5.3,61.1,5.9,60.5C6.5,60,7.2,59.7,8,59.7c0.4,0,0.9,0.1,1.3,0.3L29,69.4c0.4,2.1,1.9,3.9,4,4.7 l22.6,8c0.7,0.2,1.5-0.1,1.7-0.8c0.2-0.7-0.1-1.5-0.8-1.7l-22.6-8c-1.8-0.6-2.7-2.6-2.1-4.4c0.5-1.4,1.8-2.3,3.3-2.3h16.5 c4.9,0,9.6,0.9,14.2,2.6l13.5,5.1c0.2,0.1,0.3,0.1,0.5,0.1h12.9l0.1,15.7L78.9,88.2L78.9,88.2z M84.1,14.1h9.5 c0.7,0,1.3-0.6,1.3-1.3s-0.6-1.3-1.3-1.3h-9.5c-0.7,0-1.3,0.6-1.3,1.3S83.4,14.1,84.1,14.1z M89.3,19.9h-5.1c-0.7,0-1.3-0.6-1.3-1.3 c0-0.7,0.6-1.3,1.3-1.3h5.1c0.7,0,1.3,0.6,1.3,1.3C90.6,19.3,90,19.9,89.3,19.9z M67.6,38h3.7c0.7,0,1.3-0.6,1.3-1.3 c0-0.7-0.6-1.3-1.3-1.3h-3.7c-0.7,0-1.3,0.6-1.3,1.3C66.2,37.4,66.8,38,67.6,38z M75.7,43.8h-8.1c-0.7,0-1.3-0.6-1.3-1.3 c0-0.7,0.6-1.3,1.3-1.3h8.1c0.7,0,1.3,0.6,1.3,1.3C77,43.2,76.4,43.8,75.7,43.8z"></path></svg>