<svg xmlns="http://www.w3.org/2000/svg" xmlns:xlink="http://www.w3.org/1999/xlink" x="0px" y="0px" viewBox="0 0 100 100" style="enable-background:new 0 0 100 100;" xml:space="preserve"><style type="text/css">	.sticky-count-icon0{fill:url(#sticky-count-icon0);}</style><g>			<linearGradient id="sticky-count-icon0" gradientUnits="userSpaceOnUse" x1="84.3403" y1="63.5631" x2="16.9334" y2="21.2684" gradientTransform="matrix(1 0 0 -1 0 101)">		<stop offset="0" style="stop-color:#884EAA"></stop>		<stop offset="1" style="stop-color:#6B4ACA"></stop>	</linearGradient>	<path class="sticky-count-icon0" d="M51.5,56.9c-0.9,0.6-2.1,0.7-2.9,0C47.7,56.2,28,41.3,28,25.5c0-12.1,9.9-22,22-22c12.1,0,22,9.9,22,22  C72,41.3,52.3,56.2,51.5,56.9z M47.6,36.5c0,1.4,1.1,2.4,2.4,2.4c1.4,0,2.4-1.1,2.4-2.4c0-1.4-1.1-2.4-2.4-2.4  C48.6,34.1,47.6,35.2,47.6,36.5z M51.7,29.9c1,1,2.5,0.9,3.5,0c1-1,1-2.5,0-3.5c-2.8-2.8-7.6-2.8-10.4,0c-1,1-1,2.5,0,3.5  c1,1,2.5,1,3.5,0C49.2,29,50.8,29,51.7,29.9z M37.9,19.5c-1,1-1,2.5,0,3.5c1,1,2.5,1,3.5,0c2.3-2.3,5.4-3.6,8.7-3.6  c3.3,0,6.3,1.3,8.7,3.6c1,1,2.5,0.9,3.5,0c1-1,1-2.5,0-3.5c-3.2-3.2-7.5-5-12.1-5C45.4,14.5,41.1,16.3,37.9,19.5z M3.5,84.3V64.7  c0-1.3,1.1-2.4,2.4-2.4h2.4v24.5H5.9C4.6,86.7,3.5,85.6,3.5,84.3z M94.1,62.2h-2.4v24.5h2.4c1.3,0,2.4-1.1,2.4-2.4V64.7  C96.5,63.3,95.4,62.2,94.1,62.2z M25.5,42.7h3.1c1.1,1.7,2.3,3.4,3.5,4.9h-9.1v-2.4C23.1,43.8,24.2,42.7,25.5,42.7z M67.8,47.6h9.1  v-2.4c0-1.3-1.1-2.4-2.4-2.4h-3.1C70.2,44.4,69.1,46,67.8,47.6z M63.6,52.4h20.7c1.3,0,2.4,1.1,2.4,2.4v39.2c0,1.3-1.1,2.4-2.4,2.4  H64.7c-0.9,0-1.8-0.5-2.2-1.3l-4.2-8.4H41.7l-4.2,8.4c-0.4,0.8-1.2,1.3-2.2,1.3H15.7c-1.3,0-2.4-1.1-2.4-2.4V54.9  c0-1.3,1.1-2.4,2.4-2.4h20.7c4.3,4.6,8.3,7.6,9.2,8.3c2.5,1.9,6.3,1.9,8.8,0C55.3,60.1,59.3,57,63.6,52.4z M28,69.6H72  c1.4,0,2.4-1.1,2.4-2.4c0-1.4-1.1-2.4-2.4-2.4H28c-1.4,0-2.4,1.1-2.4,2.4C25.5,68.5,26.6,69.6,28,69.6z"></path></g></svg>