<svg xmlns="http://www.w3.org/2000/svg" xmlns:xlink="http://www.w3.org/1999/xlink" x="0px" y="0px" viewBox="0 0 100 100" style="enable-background:new 0 0 100 100;" xml:space="preserve"><style type="text/css">	.sticky-count-icon01{fill:url(#sticky-count1-icon);}	.sticky-count-icon02{fill:url(#sticky-count1-icon2);}	.sticky-count-icon03{fill:url(#sticky-count1-icon3);}	.sticky-count-icon04{fill:url(#sticky-count1-icon4);}	.sticky-count-icon05{fill:url(#sticky-count1-icon5);}</style><g>			<linearGradient id="sticky-count1-icon" gradientUnits="userSpaceOnUse" x1="85.9146" y1="87.4796" x2="83.1751" y2="82.9871" gradientTransform="matrix(1 0 0 -1 0 101)">		<stop offset="0" style="stop-color:#884EAA"></stop>		<stop offset="1" style="stop-color:#6B4ACA"></stop>	</linearGradient>	<path class="sticky-count-icon01" d="M87.8,13.6h-6.2c-1.1,0-1.9,0.9-1.9,1.9s0.9,1.9,1.9,1.9h6.2c1.1,0,1.9-0.9,1.9-1.9S88.8,13.6,87.8,13.6z"></path>			<linearGradient id="sticky-count1-icon2" gradientUnits="userSpaceOnUse" x1="16.548" y1="52.1098" x2="13.8085" y2="47.6173" gradientTransform="matrix(1 0 0 -1 0 101)">		<stop offset="0" style="stop-color:#884EAA"></stop>		<stop offset="1" style="stop-color:#6B4ACA"></stop>	</linearGradient>	<path class="sticky-count-icon02" d="M18.4,49h-6.2c-1.1,0-1.9,0.9-1.9,1.9c0,1.1,0.9,1.9,1.9,1.9h6.2c1.1,0,1.9-0.9,1.9-1.9  C20.3,49.9,19.5,49,18.4,49z"></path>			<linearGradient id="sticky-count1-icon3" gradientUnits="userSpaceOnUse" x1="78.0026" y1="46.0743" x2="32.436" y2="24.2674" gradientTransform="matrix(1 0 0 -1 0 101)">		<stop offset="0" style="stop-color:#884EAA"></stop>		<stop offset="1" style="stop-color:#6B4ACA"></stop>	</linearGradient>	<path class="sticky-count-icon03" d="M78.4,55.3v3.8c0,1.1-0.9,1.9-1.9,1.9c-1.1,0-1.9-0.9-1.9-1.9v-5.6c-0.7-1-2.9-3.4-6.5-2.7v6.8  c0,1.1-0.9,1.9-1.9,1.9c-1.1,0-1.9-0.9-1.9-1.9V50c-0.7-0.9-2.7-2.9-5.9-2l0.4,9.5c0,1.1-0.8,1.9-1.8,2c0,0-0.1,0-0.1,0  c-1,0-1.9-0.8-1.9-1.8l-0.5-10.9l-1.3-18.6c-0.1-1.4-1.3-2.6-2.8-2.6c-1.5,0-2.8,1.2-2.8,2.8v40.3c0,0.8-0.5,1.5-1.2,1.8  c-0.7,0.3-1.5,0.1-2.1-0.4c-2.5-2.6-10.2-9-15.2-8.2c-0.4,0.1-0.6,0.3-0.7,0.6c-0.1,0.3-0.2,0.8,0.2,1.2c2.3,3,6.8,9.1,10.8,15.9  c1.7,3,3.7,5.8,5.9,8.2l4.1,4.6c0.3,0.4,0.5,0.8,0.5,1.3v4.8c0,0,0,0,0,0h27.1v0v-4.3c0-0.2,0-0.4,0.1-0.6l4.2-12.9  c1.6-5,2.5-10.3,2.5-15.6v-1.9C83.9,59.4,81.6,56.4,78.4,55.3L78.4,55.3z"></path>			<linearGradient id="sticky-count1-icon4" gradientUnits="userSpaceOnUse" x1="57.9762" y1="78.9573" x2="42.0607" y2="68.9079" gradientTransform="matrix(1 0 0 -1 0 101)">		<stop offset="0" style="stop-color:#884EAA"></stop>		<stop offset="1" style="stop-color:#6B4ACA"></stop>	</linearGradient>	<path class="sticky-count-icon04" d="M50,14.3l-11,6.4v12.7l4.9,2.8v-7.9c0-3.6,3-6.6,6.6-6.6c3.6,0,6.3,2.7,6.6,6.1l0.5,7.6l3.5-2V20.7L50,14.3  L50,14.3z"></path>			<linearGradient id="sticky-count1-icon5" gradientUnits="userSpaceOnUse" x1="67.8742" y1="92.9899" x2="30.0992" y2="52.6693" gradientTransform="matrix(1 0 0 -1 0 101)">		<stop offset="0" style="stop-color:#884EAA"></stop>		<stop offset="1" style="stop-color:#6B4ACA"></stop>	</linearGradient>	<path class="sticky-count-icon05" d="M43.9,48.8v-8.1l-7.8-4.5c-0.6-0.3-1-1-1-1.7V19.6c0-0.7,0.4-1.3,1-1.7l12.9-7.5c0.6-0.3,1.3-0.3,1.9,0  l12.9,7.5c0.6,0.3,1,1,1,1.7v14.9c0,0.7-0.4,1.3-1,1.7l-6.1,3.5l0.3,4.4c2-0.4,3.8-0.1,5.3,0.5l8.5-4.9V16.6l5.3-5.4h10.9  c1.1,0,1.9-0.9,1.9-1.9s-0.9-1.9-1.9-1.9H76.4c-0.5,0-1,0.2-1.4,0.6l-5.2,5.3L50,1.8L28.1,14.4v22.8l-5.3,5.5H11.9  c-1.1,0-1.9,0.9-1.9,1.9c0,1.1,0.9,1.9,1.9,1.9h11.7c0.5,0,1-0.2,1.4-0.6l5-5.1L43.9,48.8z"></path></g></svg>