<svg xmlns="http://www.w3.org/2000/svg" xmlns:xlink="http://www.w3.org/1999/xlink" x="0px" y="0px" viewBox="0 0 100 100" style="enable-background:new 0 0 100 100;" xml:space="preserve"><style type="text/css">	.sticky-count3-icon{fill:url(#sticky-count3-icon1);}</style><g>			<linearGradient id="sticky-count3-icon1" gradientUnits="userSpaceOnUse" x1="80.008" y1="68.2966" x2="14.7754" y2="27.3664" gradientTransform="matrix(1 0 0 -1 0 101)">		<stop offset="0" style="stop-color:#884EAA"></stop>		<stop offset="1" style="stop-color:#6B4ACA"></stop>	</linearGradient>	<path class="sticky-count3-icon" d="M43.9,59H24.8c-4,0-7.2-3.2-7.2-7.2V12.2c0-4,3.2-7.2,7.2-7.2h50.4c4,0,7.2,3.2,7.2,7.2v39.6  c0,4-3.2,7.2-7.2,7.2H56.1l-4.9,4.9c-0.7,0.7-1.9,0.7-2.5,0L43.9,59z M32.9,21.4C32.4,21.7,32,22.3,32,23v18c0,0.7,0.4,1.3,0.9,1.6  l16.2,9c0.5,0.3,1.2,0.3,1.7,0l16.2-9c0.6-0.3,0.9-0.9,0.9-1.6V23c0-0.7-0.4-1.3-0.9-1.6l-16.2-9c-0.5-0.3-1.2-0.3-1.7,0L32.9,21.4  z M50,16.1L62.5,23L50,29.9L37.5,23L50,16.1z M51.8,46.9l12.6-7V26.1l-12.6,7V46.9z M80.6,68H19.4c-3,0-5.4,2.4-5.4,5.4v16.2  c0,3,2.4,5.4,5.4,5.4h19.8c0.9,0,1.6-0.6,1.8-1.4l0-0.1l0-0.1c0.9-4.3,4.6-7.4,9-7.4s8.1,3.1,9,7.4l0,0.1l0,0.1  c0.2,0.8,0.9,1.4,1.8,1.4h19.8c3,0,5.4-2.4,5.4-5.4V73.4C86,70.4,83.6,68,80.6,68z M68,78.8H32c-1,0-1.8-0.8-1.8-1.8  s0.8-1.8,1.8-1.8h36c1,0,1.8,0.8,1.8,1.8S69,78.8,68,78.8z M91.4,75.2h-1.8v12.6h1.8c2,0,3.6-1.6,3.6-3.6v-5.4  C95,76.8,93.4,75.2,91.4,75.2z M5,84.2v-5.4c0-2,1.6-3.6,3.6-3.6h1.8v12.6H8.6C6.6,87.8,5,86.2,5,84.2z M48.2,33.1l-12.6-7v13.9  l12.6,7V33.1z"></path></g></svg>