<svg xmlns="http://www.w3.org/2000/svg" xmlns:xlink="http://www.w3.org/1999/xlink" viewBox="0 0 100 100"><defs><style>.wdt-cus-contrl-cl-1{fill:url(#wdt-cus-contrl-01);}.wdt-cus-contrl-cl-2{fill:url(#wdt-cus-contrl-02);}.wdt-cus-contrl-cl-3{fill:url(#wdt-cus-contrl-01);}</style><linearGradient id="wdt-cus-contrl-01" x1="1.75" y1="49.96" x2="98.25" y2="49.96" gradientUnits="userSpaceOnUse"><stop offset="0" stop-color="#6b4aca"></stop><stop offset="1" stop-color="#884eaa"></stop></linearGradient><linearGradient id="wdt-cus-contrl-02" x1="36.1" y1="50" x2="63.6" y2="50" xlink:href="#wdt-cus-contrl-01"></linearGradient><linearGradient id="wdt-cus-contrl-03" x1="42.36" y1="50.01" x2="57.37" y2="50.01" xlink:href="#wdt-cus-contrl-01"></linearGradient></defs><path class="wdt-cus-contrl-cl-1" d="M98.25,50c-.5.7-.77,1.42-1.29,1.77-1.55,1-3.19,2-4.81,2.89a29.38,29.38,0,0,0-3.8,2.21,4.46,4.46,0,0,0-1.28,2.37,35.4,35.4,0,0,1-5,11.68A38.57,38.57,0,0,1,71.48,81.67a46.46,46.46,0,0,1-7.84,4.19A12.54,12.54,0,0,1,60.05,87c-2.35.24-3.6,1.59-4.61,3.55a68.58,68.58,0,0,1-3.85,6.56,2,2,0,0,1-2.74.7,1.9,1.9,0,0,1-.66-.63c-.74-1.09-1.43-2.21-2.06-3.37A58.31,58.31,0,0,0,43,88.5a4,4,0,0,0-2.38-1.25A31.57,31.57,0,0,1,32,84a34.59,34.59,0,0,1-10.93-8.74A69.55,69.55,0,0,1,15.92,68a31,31,0,0,1-2.25-5.23,25.05,25.05,0,0,1-1.12-3.89c-.36-1.78-1.75-2.46-3.11-3.24S6.63,54,5.23,53.21c-.74-.43-1.49-.86-2.22-1.3a2.08,2.08,0,0,1,0-3.83c2.72-1.6,5.47-3.15,8.18-4.76a2,2,0,0,0,.8-1c.34-.89.53-1.83.83-2.73.45-1.37.87-2.75,1.43-4.07.66-1.55,1.42-3.05,2.2-4.54A27.87,27.87,0,0,1,21.55,24a56.59,56.59,0,0,1,5.61-5,35.63,35.63,0,0,1,5.49-3.32c1.79-.92,3.71-1.6,5.58-2.35a5.27,5.27,0,0,1,1.51-.4,5.37,5.37,0,0,0,4.45-3.35c1.18-2.29,2.52-4.5,3.88-6.68a2,2,0,0,1,2.69-.88,2,2,0,0,1,.88.88c1.35,2.2,2.68,4.4,3.87,6.68A5.67,5.67,0,0,0,60.14,13a17.65,17.65,0,0,1,4,1.36c.91.35,1.79.79,2.67,1.21a36.94,36.94,0,0,1,9.12,6.3,36.14,36.14,0,0,1,6,7.06,42.31,42.31,0,0,1,3.15,6c.87,2,1.42,4.23,2.11,6.36a3.82,3.82,0,0,0,2,2.28c2.64,1.42,5.21,3,7.75,4.58A7.2,7.2,0,0,1,98.25,50ZM74.66,50h0V39.28c0-2,1.46-3,3.31-2.13a21.64,21.64,0,0,1,2.14,1.24c1.27.74,2.54,1.49,3.82,2.2.2.11.61.15.74,0a.87.87,0,0,0,.13-.75A13.16,13.16,0,0,0,84.12,38c-1.06-2.34-2-4.76-3.25-7a28.77,28.77,0,0,0-6.15-7.52,60.86,60.86,0,0,0-6.28-4.79A39,39,0,0,0,63.12,16a23.14,23.14,0,0,0-3-1,1.14,1.14,0,0,0-.9.16c-.12.09,0,.57.11.83s.48.78.71,1.17c.84,1.43,1.66,2.86,2.49,4.29a2.75,2.75,0,0,1,.22,2.65,2,2,0,0,1-2,1H39.06c-1.94,0-2.86-1.58-2-3.34.36-.74.84-1.42,1.26-2.13.72-1.21,1.45-2.42,2.13-3.65.14-.25.2-.75,0-.9s-.61-.14-.93-.12a2.44,2.44,0,0,0-.69.23c-1.17.46-2.37.87-3.5,1.4A40.41,40.41,0,0,0,30.87,19a36.78,36.78,0,0,0-7.39,6,33.21,33.21,0,0,0-5.15,6.92C17.51,33.44,16.7,35,16,36.57a24.41,24.41,0,0,0-1.14,3.31,1,1,0,0,0,.2.82c.11.11.53,0,.75-.06.52-.25,1-.58,1.5-.87l4.05-2.37a2.86,2.86,0,0,1,2.73-.24,1.92,1.92,0,0,1,1,2V60.52c0,2.17-1.56,3.2-3.37,2.23s-3.58-2.13-5.39-3.16a5.09,5.09,0,0,0-1.26-.38c0,.46-.07.92-.08,1.38a.7.7,0,0,0,.12.34c.78,1.83,1.5,3.69,2.36,5.48a22.92,22.92,0,0,0,2.35,4,49.48,49.48,0,0,0,5.11,5.9,48,48,0,0,0,6.32,4.86,38.36,38.36,0,0,0,5.24,2.64A22.25,22.25,0,0,0,39.78,85c.77.21,1.06-.17.74-.91a15.48,15.48,0,0,0-.9-1.59c-.75-1.3-1.47-2.63-2.28-3.89A2.88,2.88,0,0,1,37,75.9c.37-1,1.27-1.07,2.15-1.12H60.67c2,.07,2.83,1.54,2,3.34-.38.73-.79,1.45-1.24,2.14C60.7,81.51,60,82.74,59.25,84a.93.93,0,0,0,0,.83c.14.16.54.15.83.14a2.48,2.48,0,0,0,.7-.22c1.17-.46,2.36-.88,3.5-1.4A45.17,45.17,0,0,0,68.81,81a30.21,30.21,0,0,0,7.37-6,65,65,0,0,0,4.87-6.34,37.84,37.84,0,0,0,2.68-5.32,24.56,24.56,0,0,0,1.07-3.13,1,1,0,0,0-.13-.84c-.15-.13-.58-.07-.83,0-.49.23-.94.56-1.42.83-1.28.73-2.6,1.39-3.83,2.2a2.8,2.8,0,0,1-2.85.41c-1.06-.47-1.08-1.47-1.08-2.45Zm2-.07v9.34a3.59,3.59,0,0,0,.1,1.18.8.8,0,0,0,.71.34,15.68,15.68,0,0,0,1.67-1c2.37-1.4,4.73-2.82,7.11-4.19C89.1,54,92,52.4,94.86,50.77a.84.84,0,0,0,.44-1.1.81.81,0,0,0-.34-.39c-1-.63-2.11-1.25-3.18-1.85-1.89-1.06-3.81-2.09-5.69-3.18-2.86-1.66-5.7-3.36-8.54-5-.49-.29-.77-.11-.86.4a8.34,8.34,0,0,0,0,1ZM50,23.2h9.43a7.27,7.27,0,0,0,1.38-.32c-.18-.36-.35-.73-.52-1.09l-.13-.25c-1.35-2.4-2.69-4.81-4.07-7.2q-2.67-4.66-5.4-9.28a1.1,1.1,0,0,0-.78-.49,1.05,1.05,0,0,0-.77.48c-1.37,2.36-2.68,4.75-4,7.11-2,3.39-3.94,6.77-5.93,10.15-.29.49-.15.76.38.85a6.7,6.7,0,0,0,1,.05ZM23.07,49.92V40.58a6.25,6.25,0,0,0-.33-1.47c-.38.19-.78.37-1.16.58-2.68,1.54-5.35,3.1-8,4.63C10.65,46,7.77,47.58,4.89,49.21a.85.85,0,0,0-.08,1.5c1.6,1,3.22,1.9,4.84,2.82,1.89,1.07,3.81,2.1,5.69,3.19,2.31,1.32,4.59,2.7,6.9,4a.79.79,0,0,0,.72-.3,4,4,0,0,0,.11-1.19ZM49.88,76.78H40.55a4.26,4.26,0,0,0-1.18.11c-.18.06-.41.51-.34.64.62,1.16,1.3,2.28,2,3.41,1.38,2.35,2.78,4.68,4.14,7s2.64,4.69,4,7a.84.84,0,0,0,1.49,0c.93-1.58,1.87-3.16,2.77-4.76,1.07-1.89,2.09-3.81,3.17-5.69,1.33-2.3,2.71-4.58,4.06-6.87.28-.48.13-.77-.39-.86a5.6,5.6,0,0,0-1-.06Z"></path><path class="wdt-cus-contrl-cl-2" d="M49.85,63.75A13.75,13.75,0,1,1,63.6,50,13.76,13.76,0,0,1,49.85,63.75Zm-.08-2C56.29,61.5,61.4,57,61.58,50.22a11.7,11.7,0,0,0-23.4-.39c-.1,6.47,4.73,11.57,11.59,11.93Z"></path><path class="wdt-cus-contrl-cl-3" d="M49.91,42.56c3.93-.24,7.61,3.58,7.45,7.76a7.81,7.81,0,0,1-7.73,7.16,7.85,7.85,0,0,1-7.27-7.64C42.41,46.09,46,42.23,49.91,42.56Zm0,1.95a5.49,5.49,0,1,0,5.46,5.54,5.6,5.6,0,0,0-5.47-5.54Z"></path></svg>