<svg xmlns="http://www.w3.org/2000/svg" xmlns:xlink="http://www.w3.org/1999/xlink" viewBox="0 0 100 100"><defs><style>.wdt-cus-panoramic-icon-cl-1{fill:url(#wdt-cus-panoramic-icon-1);}.wdt-cus-panoramic-icon-cl-2{fill:url(#wdt-cus-panoramic-icon2);}.wdt-cus-panoramic-icon-cl-3{fill:url(#wdt-cus-panoramic-icon3);}.wdt-cus-panoramic-icon-cl-4{fill:url(#wdt-cus-panoramic-icon4);}.wdt-cus-panoramic-icon-cl-5{fill:url(#wdt-cus-panoramic-icon5);}.wdt-cus-panoramic-icon-cl-6{fill:url(#wdt-cus-panoramic-icon6);}.wdt-cus-panoramic-icon-cl-7{fill:url(#wdt-cus-panoramic-icon7);}.wdt-cus-panoramic-icon-cl-8{fill:url(#wdt-cus-panoramic-icon8);}.wdt-cus-panoramic-icon-cl-9{fill:url(#wdt-cus-panoramic-icon9);}.wdt-cus-panoramic-icon-cl-10{fill:url(#wdt-cus-panoramic-icon10);}.wdt-cus-panoramic-icon-cl-11{fill:url(#wdt-cus-panoramic-icon11);}.wdt-cus-panoramic-icon-cl-12{fill:url(#wdt-cus-panoramic-icon12);}.wdt-cus-panoramic-icon-cl-13{fill:url(#wdt-cus-panoramic-icon13);}.wdt-cus-panoramic-icon-cl-14{fill:url(#wdt-cus-panoramic-icon14);}.wdt-cus-panoramic-icon-cl-15{fill:url(#wdt-cus-panoramic-icon15);}.wdt-cus-panoramic-icon-cl-16{fill:url(#wdt-cus-panoramic-icon16);}.wdt-cus-panoramic-icon-cl-17{fill:url(#wdt-cus-panoramic-icon18);}</style><linearGradient id="wdt-cus-panoramic-icon-1" x1="1.65" y1="34.15" x2="98.36" y2="34.15" gradientUnits="userSpaceOnUse"><stop offset="0" stop-color="#6b4aca"></stop><stop offset="1" stop-color="#884eaa"></stop></linearGradient><linearGradient id="wdt-cus-panoramic-icon2" x1="4.95" y1="84.65" x2="95.01" y2="84.65" xlink:href="#wdt-cus-panoramic-icon-1"></linearGradient><linearGradient id="wdt-cus-panoramic-icon3" x1="56.12" y1="78.69" x2="66.68" y2="78.69" xlink:href="#wdt-cus-panoramic-icon-1"></linearGradient><linearGradient id="wdt-cus-panoramic-icon4" x1="45.09" y1="78.71" x2="55.15" y2="78.71" xlink:href="#wdt-cus-panoramic-icon-1"></linearGradient><linearGradient id="wdt-cus-panoramic-icon5" x1="33.61" y1="78.69" x2="43.4" y2="78.69" xlink:href="#wdt-cus-panoramic-icon-1"></linearGradient><linearGradient id="wdt-cus-panoramic-icon6" x1="66.61" y1="69.13" x2="73.38" y2="69.13" xlink:href="#wdt-cus-panoramic-icon-1"></linearGradient><linearGradient id="wdt-cus-panoramic-icon7" x1="52.65" y1="51.87" x2="54.7" y2="51.87" xlink:href="#wdt-cus-panoramic-icon-1"></linearGradient><linearGradient id="wdt-cus-panoramic-icon8" x1="12.31" y1="32.61" x2="28.54" y2="32.61" xlink:href="#wdt-cus-panoramic-icon-1"></linearGradient><linearGradient id="wdt-cus-panoramic-icon9" x1="52.76" y1="38.36" x2="63.07" y2="38.36" xlink:href="#wdt-cus-panoramic-icon-1"></linearGradient><linearGradient id="wdt-cus-panoramic-icon10" x1="66.55" y1="33.41" x2="75.45" y2="33.41" xlink:href="#wdt-cus-panoramic-icon-1"></linearGradient><linearGradient id="wdt-cus-panoramic-icon11" x1="77.31" y1="38" x2="83.45" y2="38" xlink:href="#wdt-cus-panoramic-icon-1"></linearGradient><linearGradient id="wdt-cus-panoramic-icon12" x1="32.57" y1="56.43" x2="37.2" y2="56.43" xlink:href="#wdt-cus-panoramic-icon-1"></linearGradient><linearGradient id="wdt-cus-panoramic-icon13" x1="34.46" y1="52.41" x2="39.07" y2="52.41" xlink:href="#wdt-cus-panoramic-icon-1"></linearGradient><linearGradient id="wdt-cus-panoramic-icon14" x1="32.6" y1="48.22" x2="37.2" y2="48.22" xlink:href="#wdt-cus-panoramic-icon-1"></linearGradient><linearGradient id="wdt-cus-panoramic-icon15" x1="72.29" y1="55.72" x2="76.82" y2="55.72" xlink:href="#wdt-cus-panoramic-icon-1"></linearGradient><linearGradient id="wdt-cus-panoramic-icon16" x1="74.97" y1="51.07" x2="79.17" y2="51.07" xlink:href="#wdt-cus-panoramic-icon-1"></linearGradient><linearGradient id="wdt-cus-panoramic-icon18" x1="22.96" y1="35.61" x2="24.84" y2="35.61" xlink:href="#wdt-cus-panoramic-icon-1"></linearGradient></defs><path class="wdt-cus-panoramic-icon-cl-1" d="M98.31,33.73V15.86a4.8,4.8,0,0,0-2.06-4.16,18.05,18.05,0,0,0-5.14-2.56c-6.61-2.26-13.5-3.2-20.42-3.95-1.16-.12-1.56.33-1.54,1.47v15c0,1.17-.31,1.56-1.47,1.64a240.09,240.09,0,0,1-35.58,0c-1-.07-1.28-.44-1.27-1.44.05-4.95,0-9.9,0-14.85,0-1.78-.2-1.94-2-1.75A119.13,119.13,0,0,0,15.41,7.32c-3.76.84-7.51,1.77-10.85,3.8-1.67,1-2.91,2.29-2.91,4.48V51.87A4.22,4.22,0,0,0,3,55a10,10,0,0,0,2.81,1.91c5,2.37,10.29,3.38,15.65,4.21A189.4,189.4,0,0,0,54.86,63C65.47,62.8,76,62,86.38,59.58a28.94,28.94,0,0,0,9.5-3.66,5,5,0,0,0,2.47-4.61C98.26,45.46,98.32,39.6,98.31,33.73ZM71.05,15V8.17c0-.61,0-1,.84-.9C79.17,8.15,86.47,9,93.27,12.1a8.56,8.56,0,0,1,2.48,1.68A1.58,1.58,0,0,1,96.06,16a1.52,1.52,0,0,1-.31.31,11.19,11.19,0,0,1-4.16,2.43,68.88,68.88,0,0,1-15,3.51c-1.52.22-3,.36-4.55.58-.76.12-1-.13-1-.89C71.07,19.61,71.05,17.29,71.05,15ZM5,13.13a15.47,15.47,0,0,1,3.85-1.94,72.11,72.11,0,0,1,14.93-3.4c1.43-.2,2.87-.33,4.29-.55.77-.11,1,.15,1,.9v7h0V22c0,.45.17,1-.67.93-7.43-.9-14.85-1.8-21.77-5A9.2,9.2,0,0,1,5,17C3.16,15.63,3.16,14.44,5,13.13ZM20.53,59.06q-3.39-.72-6.8-1.36c-.7-.14-.72-.47-.4-1a4,4,0,0,1,3.21-2.17c2.71,0,4.59,1.64,4.8,3.7C21.41,58.86,21.32,59.23,20.53,59.06Zm-7.41-5c.2-1,.27-1.09,1.86-1.19Zm25.57,6.86q-3.13-.3-6.27-.47c-.64,0-.81-.26-.81-.87V43.72c0-.63.15-.84.83-.77,2.08.22,4.17.41,6.26.53.76,0,.94.32.93,1V60c0,.73-.16,1-.94.94Zm39.88-1.75c-2.08.21-4.17.49-6.24.76-.52.07-.83.06-.82-.61V49.48c0-.37,0-.67.52-.73q3.45-.45,6.88-1c.66-.09.57.36.57.74v9.58c0,.69-.2.94-.91,1Zm16.25-4.79c-2.59,1.74-5.56,2.5-8.51,3.32-1.22.34-2.48.54-3.71.86-.87.22-1.22.06-1.2-1,.06-3.28,0-6.57,0-9.85,0-2.09-.15-2.2-2.17-1.91-2.69.39-5.37.8-8.07,1.07-1.27.13-1.6.67-1.57,1.85.06,3.51,0,7,0,10.52,0,.77-.11,1.14-1,1.21q-6.49.48-13,.71c-.71,0-1-.12-1-.91,0-1.34,0-2.3,1.69-2.9,2.8-1,4.11-4.31,3.31-7.21a6.2,6.2,0,1,0-8,7.57c.41.14,1,0,1,.77a7.17,7.17,0,0,1-.14,2.57c-.06.13-.48.15-.73.14-3.06,0-6.13-.09-9.19-.06-1,0-1.11-.42-1.1-1.25V43.72c0-1.88,0-1.91-1.84-2.08-2.79-.26-5.58-.46-8.37-.75-1.23-.12-1.62.36-1.61,1.56V58.74c0,1.1-.09,1.7-1.45,1.39A29.31,29.31,0,0,0,24,59.62c-.65,0-.87-.25-.91-.94a5.92,5.92,0,0,0-5.17-6,2.18,2.18,0,0,1-1.11-.61,3.33,3.33,0,0,0-4.3-.65,3.4,3.4,0,0,0-1.47,4c.1.42.38.85,0,1.24s-.84.06-1.2-.08a17.85,17.85,0,0,1-5.18-2.5,2.8,2.8,0,0,1-1.26-2.31V19.31c0-.25-.09-.53.16-.72,8,4.33,16.77,5.3,25.54,6.25a201.52,201.52,0,0,0,35.17.55c8.87-.6,17.7-1.55,26.23-4.3A26.15,26.15,0,0,0,96,18.52c.33.39.2.76.2,1.09V51.28a3.36,3.36,0,0,1-1.39,3.07ZM53.67,56.12a4.26,4.26,0,0,1-4.31-4.21v-.12a4.35,4.35,0,0,1,4.28-4.26,4.3,4.3,0,0,1,4.28,4.32v0a4.22,4.22,0,0,1-4.21,4.23Z"></path><path class="wdt-cus-panoramic-icon-cl-2" d="M93.87,87.24c-2,1.93-4.53,2.79-7.09,3.54A98,98,0,0,1,68.32,94a199.26,199.26,0,0,1-29.92.51c-8.49-.47-16.94-1.33-25.15-3.7A19.78,19.78,0,0,1,6.94,88c-2.62-1.9-2.66-4.42-.07-6.36a23,23,0,0,1,7.82-3.3c3-.83,6-1.31,9-1.85.63-.11,1-.11,1.14.75s-.08,1.06-.86,1.18a64.55,64.55,0,0,0-11.88,2.73,15.3,15.3,0,0,0-4,1.95c-1.63,1.2-1.65,2.21,0,3.39a23.61,23.61,0,0,0,8.4,3.24,128.83,128.83,0,0,0,23.8,3,196.87,196.87,0,0,0,24.29-.29c7.42-.57,14.82-1.38,22-3.57a16.72,16.72,0,0,0,5.35-2.43c1.62-1.23,1.56-2.21-.12-3.38a23.31,23.31,0,0,0-6.66-2.77c.2,1.47.39,2.8.63,4.52a41.75,41.75,0,0,0-8.37-7.15,37.94,37.94,0,0,0,10.51-3.2c-.72,1.16-1.21,2.07-1.8,2.9s-.49,1.14.49,1.4A21.22,21.22,0,0,1,92.07,81a10,10,0,0,1,1.77,1.34,3.22,3.22,0,0,1,.44,4.52A3.18,3.18,0,0,1,93.87,87.24Z"></path><path class="wdt-cus-panoramic-icon-cl-3" d="M65.8,74.16a4.6,4.6,0,0,0-4.51-2.77A4.43,4.43,0,0,0,57,74.33,11.15,11.15,0,0,0,57,83a4.42,4.42,0,0,0,4.28,3,4.63,4.63,0,0,0,4.52-2.8,9.59,9.59,0,0,0,.86-4.29A10,10,0,0,0,65.8,74.16Zm-2.25,8.25A2.19,2.19,0,0,1,61.47,84a2,2,0,0,1-2-1.39,10.27,10.27,0,0,1,0-7.78,2,2,0,0,1,2-1.35A2.17,2.17,0,0,1,63.57,75a8.75,8.75,0,0,1,.6,3.72A8.48,8.48,0,0,1,63.55,82.41Z"></path><path class="wdt-cus-panoramic-icon-cl-4" d="M55,80c-.47-2.21-2.49-3.39-5.09-3-.17,0-.36.19-.58-.06,1.41-1.75,2.81-3.47,4.41-5.44-1.4.08-2.63-.42-3.36.51-1.7,2.16-3.61,4.21-4.74,6.75a5.09,5.09,0,0,0,.65,5.57c1.39,1.69,3.3,1.89,5.27,1.46A4.76,4.76,0,0,0,55,80Zm-5,4a2.42,2.42,0,0,1-2.49-2.33c0-.1,0-.21,0-.31a2.5,2.5,0,0,1,2.4-2.58h.3a2.41,2.41,0,0,1,2.5,2.32c0,.1,0,.2,0,.3A2.6,2.6,0,0,1,50.13,84H50Z"></path><path class="wdt-cus-panoramic-icon-cl-5" d="M43.25,82.63a4.28,4.28,0,0,1-3.69,3.26C36.85,86.3,35,85.45,34,83.3c-.19-.4-.77-.93,0-1.3s1.39-.7,2,.15a9.6,9.6,0,0,0,.66,1,2.41,2.41,0,0,0,3,.52A2.24,2.24,0,0,0,40.87,81c-.23-1.29-1.27-1.43-2.27-1.6-.51-.09-1,0-1-.82s.29-1,.95-1c.83-.11,1.66-.27,2-1.23a2.13,2.13,0,0,0-.95-2.7,2.39,2.39,0,0,0-3,1.08c-.2.38-.25.87-.74,1a2.08,2.08,0,0,1-1.65-.22c-.53-.32,0-.88.12-1.28A5,5,0,0,1,42,72.52c1.7,1.61,1.4,4-.78,5.78C43.17,79.59,43.69,80.74,43.25,82.63Z"></path><path class="wdt-cus-panoramic-icon-cl-6" d="M70,65.76a3.43,3.43,0,0,0-3.39,3.43A3.35,3.35,0,0,0,70,72.5a3.27,3.27,0,0,0,3.43-3.11v-.22a3.35,3.35,0,0,0-3.29-3.41Zm0,4.86c-.89-.08-1.5-.52-1.49-1.46a1.38,1.38,0,0,1,1.27-1.48.81.81,0,0,1,.22,0,1.34,1.34,0,0,1,1.43,1.25v.14a1.39,1.39,0,0,1-1.22,1.54Z"></path><path class="wdt-cus-panoramic-icon-cl-7" d="M54.7,51.72a1,1,0,0,1-1.05,1.15,1,1,0,1,1,1.05-1.15Z"></path><path class="wdt-cus-panoramic-icon-cl-8" d="M22.32,29.08c1.73-.31,3.45-.6,5.17-.92.66-.12,1.22-.44,1-1.23s-.75-.76-1.38-.65c-1.42.26-2.85.47-4.27.74-.71.13-1.41.48-2-.31a.58.58,0,0,0-.82,0l0,0c-.71.88-1.55.47-2.37.31l-4-.7c-.65-.11-1.15.08-1.29.77s.29.95.86,1.09c.25.07.51.12.77.17,1.42.25,2.85.48,4.27.74.44.09,1.05-.07,1.19.56s-.46.65-.77.92-.55.39-.63.65c-.34,1.17-1.21,1.17-2.16,1.09H14.69a1.59,1.59,0,0,0-1.82,1.33,2.17,2.17,0,0,0,0,.36v3c0,1.42.58,2,2,2H26c1.26,0,1.82-.62,1.85-1.87v-2.5c0-2-.4-2.37-2.38-2.37-1.15,0-2.39.28-2.86-1.28-.08-.24-.44-.41-.69-.58s-.77-.33-.62-.86S22,29.14,22.32,29.08Zm3,5.08c.5,0,.71.21.68.71a11.69,11.69,0,0,0,0,1.45c.06.67-.28.8-.86.79H15.7c-.84,0-1.19-.3-1-1s-.68-1.84.63-1.88c3.38-.09,6.67,0,10,0Z"></path><path class="wdt-cus-panoramic-icon-cl-9" d="M63.07,38.05c0,.65-.48,1-1.15,1-1.4.07-2.8.16-4.2.25h0l-3.67.25c-.69,0-1.27-.11-1.29-.92s.5-1,1.13-1l8-.46C62.53,37.12,63.08,37.34,63.07,38.05Z"></path><path class="wdt-cus-panoramic-icon-cl-10" d="M74.14,34.13c-1.87.12-3.75.29-5.88.46h0a2.67,2.67,0,0,0-.4,0c-.66,0-1.29-.05-1.31-.89s.57-1,1.25-1c2.09-.14,4.19-.31,6.28-.47.66,0,1.31,0,1.37.81S74.88,34.08,74.14,34.13Z"></path><path class="wdt-cus-panoramic-icon-cl-11" d="M82.69,38.58l-4.11.7c-.77,0-1.2-.24-1.26-.88a.86.86,0,0,1,.73-1h.09c1.42-.25,2.85-.48,4.28-.67a.87.87,0,0,1,1,.73.22.22,0,0,1,0,.08.84.84,0,0,1-.59,1Z"></path><path class="wdt-cus-panoramic-icon-cl-12" d="M37.2,56.43c0,.72-.5,1-1.14,1a18.86,18.86,0,0,1-2.49-.11.92.92,0,0,1-1-1c0-.66.5-.87,1.09-.89h1.17v.07h1.31A1,1,0,0,1,37.2,56.43Z"></path><path class="wdt-cus-panoramic-icon-cl-13" d="M39.07,52.51c0,.76-.65.94-1.33.91h-.91v-.05l-1.44-.07a.85.85,0,0,1-.92-.78v-.11a.89.89,0,0,1,.76-1h2.59C38.6,51.41,39.11,51.72,39.07,52.51Z"></path><path class="wdt-cus-panoramic-icon-cl-14" d="M37.2,48.31c0,.59-.44.81-1,.83H33.47a.86.86,0,0,1-.86-.86v-.09a.82.82,0,0,1,.71-.9h.06c1,0,2,0,3,.06a.87.87,0,0,1,.82.93Z"></path><path class="wdt-cus-panoramic-icon-cl-15" d="M76,56.4c-.86.18-1.72.32-2.59.43a.87.87,0,0,1-1.07-.61.19.19,0,0,1,0-.08A.89.89,0,0,1,72.94,55l.15,0c.86-.16,1.73-.28,2.47-.39s1.18.14,1.26.8a.91.91,0,0,1-.8,1Z"></path><path class="wdt-cus-panoramic-icon-cl-16" d="M78.45,51.8c-.76.17-1.54.26-2.22.37S75.09,52,75,51.4a.9.9,0,0,1,.66-1.09l.17,0c.78-.13,1.55-.26,2.32-.34a.94.94,0,0,1,.3,1.85Z"></path><path class="wdt-cus-panoramic-icon-cl-7" d="M54.7,51.72a1,1,0,0,1-1.05,1.15,1,1,0,1,1,1.05-1.15Z"></path><path class="wdt-cus-panoramic-icon-cl-17" d="M24.82,35.69c0,.59-.4.82-.93.86a.88.88,0,0,1-.92-.84v0a.91.91,0,0,1,.81-1,.61.61,0,0,1,.19,0,.84.84,0,0,1,.85,1Z"></path></svg>