<svg xmlns="http://www.w3.org/2000/svg" xmlns:xlink="http://www.w3.org/1999/xlink" viewBox="0 0 100 100"><defs><style>.wdt-cus-8-arrow-icon-cl-1{fill:url(#wdt-cus-8-arrow-icon-1);}.wdt-cus-8-arrow-icon-cl-2{fill:url(#wdt-cus-8-arrow-icon-2);}.wdt-cus-8-arrow-icon-cl-3{fill:url(#wdt-cus-8-arrow-icon-3);}.wdt-cus-8-arrow-icon-cl-4{fill:url(#wdt-cus-8-arrow-icon-4);}.wdt-cus-8-arrow-icon-cl-5{fill:url(#wdt-cus-8-arrow-icon-5);}.wdt-cus-8-arrow-icon-cl-6{fill:url(#wdt-cus-8-arrow-icon-6);}.wdt-cus-8-arrow-icon-cl-7{fill:url(#wdt-cus-8-arrow-icon-7);}.wdt-cus-8-arrow-icon-cl-8{fill:url(#wdt-cus-8-arrow-icon-8);}.wdt-cus-8-arrow-icon-cl-9{fill:url(#wdt-cus-8-arrow-icon-9);}</style><linearGradient id="wdt-cus-8-arrow-icon-1" x1="2.74" y1="49.94" x2="39.73" y2="49.94" gradientUnits="userSpaceOnUse"><stop offset="0" stop-color="#6b4aca"></stop><stop offset="1" stop-color="#884eaa"></stop></linearGradient><linearGradient id="wdt-cus-8-arrow-icon-2" x1="60.28" y1="49.92" x2="97.28" y2="49.92" xlink:href="#wdt-cus-8-arrow-icon-1"></linearGradient><linearGradient id="wdt-cus-8-arrow-icon-3" x1="42.55" y1="78.73" x2="57.36" y2="78.73" xlink:href="#wdt-cus-8-arrow-icon-1"></linearGradient><linearGradient id="wdt-cus-8-arrow-icon-4" x1="42.62" y1="21.13" x2="57.4" y2="21.13" xlink:href="#wdt-cus-8-arrow-icon-1"></linearGradient><linearGradient id="wdt-cus-8-arrow-icon-5" x1="56.42" y1="29.93" x2="83.01" y2="29.93" xlink:href="#wdt-cus-8-arrow-icon-1"></linearGradient><linearGradient id="wdt-cus-8-arrow-icon-6" x1="16.69" y1="30.01" x2="43.11" y2="30.01" xlink:href="#wdt-cus-8-arrow-icon-1"></linearGradient><linearGradient id="wdt-cus-8-arrow-icon-7" x1="56.72" y1="69.68" x2="83.2" y2="69.68" xlink:href="#wdt-cus-8-arrow-icon-1"></linearGradient><linearGradient id="wdt-cus-8-arrow-icon-8" x1="16.99" y1="70.03" x2="43.52" y2="70.03" xlink:href="#wdt-cus-8-arrow-icon-1"></linearGradient><linearGradient id="wdt-cus-8-arrow-icon-9" x1="42.27" y1="49.91" x2="57.73" y2="49.91" xlink:href="#wdt-cus-8-arrow-icon-1"></linearGradient></defs><path class="wdt-cus-8-arrow-icon-cl-1" d="M7.13,49c.74.06,1.18.11,1.62.11H38.33c1.18,0,1.72.66,1.2,1.52a1.49,1.49,0,0,1-1.11.53H9.52a6.74,6.74,0,0,0-1.27,0,1.28,1.28,0,0,0-.75.49c-.07.1.18.5.37.68,1.08,1,2.19,2,3.27,3.07.79.75.77,1.75-.08,1.92a2,2,0,0,1-1.43-.53c-1-.82-1.94-1.74-2.88-2.64C5.52,53,4.31,51.76,3.08,50.55c-.43-.42-.47-.73,0-1.19C5.44,47.26,7.72,45.12,10,43c.42-.39.88-.7,1.32-.11a1.06,1.06,0,0,1,.07,1.51l-.07.07c-1.07,1-2.16,2-3.19,3A10.32,10.32,0,0,0,7.13,49Z"></path><path class="wdt-cus-8-arrow-icon-cl-2" d="M92.86,50.84c-.74-.05-1.18-.1-1.62-.1H61.75c-1.23,0-1.75-.55-1.33-1.45a1.35,1.35,0,0,1,.78-.59,2.8,2.8,0,0,1,1,0H90.8a7.82,7.82,0,0,0,1.72-.4A8.86,8.86,0,0,0,91.58,47c-.79-.82-1.66-1.55-2.48-2.34a2.69,2.69,0,0,1-.65-.94,1.24,1.24,0,0,1,.14-.92c.14-.13.87-.34,1.1-.18a21.61,21.61,0,0,1,2.37,2c1.65,1.56,3.26,3.16,4.9,4.73.46.45.41.76-.07,1.19-2.32,2.11-4.6,4.25-6.89,6.38-.39.35-.82.66-1.26.15a1.08,1.08,0,0,1-.13-1.52l.13-.13c1.06-1,2.16-2,3.19-3A9,9,0,0,0,92.86,50.84Z"></path><path class="wdt-cus-8-arrow-icon-cl-3" d="M49.09,92.42c0-.45.06-.89.06-1.34v-29a3.35,3.35,0,0,1,0-1,1.63,1.63,0,0,1,.92-.88.88.88,0,0,1,1.08.59.82.82,0,0,1,0,.31V90.3a7.84,7.84,0,0,0,0,1.37,1,1,0,0,0,.4.69c.17.08.54-.1.72-.28,1-1.07,2-2.18,3.06-3.27.77-.83,1.82-.85,2,0a2.07,2.07,0,0,1-.54,1.44c-.81,1-1.7,1.88-2.59,2.79-1.28,1.33-2.6,2.63-3.9,3.94a5.14,5.14,0,0,1-.49.32c-1.81-1.94-3.6-3.86-5.39-5.8-.51-.55-1-1.12-1.5-1.68-.36-.39-.63-.83-.11-1.26a1.1,1.1,0,0,1,1.55-.1.94.94,0,0,1,.1.1c1,1,1.94,2.11,3,3.12a8.55,8.55,0,0,0,1.28.88Z"></path><path class="wdt-cus-8-arrow-icon-cl-4" d="M50.94,7.09c0,.74-.09,1.18-.09,1.63V38.19c0,1.18-.53,1.69-1.4,1.31a1.56,1.56,0,0,1-.64-.83,2.8,2.8,0,0,1,0-1V9a7.46,7.46,0,0,0-.41-1.61,8.66,8.66,0,0,0-1.26.89c-.83.82-1.6,1.71-2.41,2.54a2.47,2.47,0,0,1-.94.66c-.28.09-.79.06-.91-.12s-.37-.87-.21-1.09a21.61,21.61,0,0,1,2-2.37c1.56-1.65,3.16-3.26,4.74-4.9.42-.44.73-.47,1.19,0,2.1,2.32,4.24,4.6,6.37,6.9.39.42.69.87.11,1.32a1.06,1.06,0,0,1-1.51.07.46.46,0,0,1-.07-.07c-1-1.07-2-2.15-3-3.18A8.8,8.8,0,0,0,50.94,7.09Z"></path><path class="wdt-cus-8-arrow-icon-cl-5" d="M80.51,20.68,58,43.2,56.42,42c1.12-1.18,2.15-2.3,3.21-3.37q4.23-4.26,8.48-8.48l7.24-7.23,3-3c.54-.53.25-.83-.3-.93a8.16,8.16,0,0,0-1.56-.07c-1.21,0-2.41.07-3.62.1a1,1,0,0,1-1.1-.88.66.66,0,0,1,0-.14c-.06-.78.5-.94,1.07-1,3-.12,6-.22,9-.33a1,1,0,0,1,1.17.8,1,1,0,0,1,0,.34c0,3.1-.12,6.2-.2,9.3,0,.65-.43.9-1,.88a.86.86,0,0,1-1-.76,1,1,0,0,1,0-.24c0-1.63.06-3.26,0-4.89A7.75,7.75,0,0,0,80.51,20.68Z"></path><path class="wdt-cus-8-arrow-icon-cl-6" d="M21,19.67c1.8,1.79,3.62,3.56,5.41,5.35q7.14,7.12,14.25,14.25c.76.76,1.46,1.57,2.21,2.35s-.07,1-.35,1.39c-.09.13-.72.08-.91-.1-1.65-1.52-3.26-3.08-4.85-4.65-2.47-2.45-4.92-4.92-7.38-7.38S24.48,26,22,23.58l-2-2c-.5-.49-.88-.42-1,.27a11.43,11.43,0,0,0,0,1.85c0,1.11.06,2.22.09,3.33a1,1,0,0,1-.85,1.13H18c-.76,0-1-.51-1-1.09-.13-3-.22-6-.33-9A1,1,0,0,1,17.55,17h.2c3.13,0,6.27.11,9.4.19.66,0,.89.47.87,1.07a.89.89,0,0,1-1,.92c-1.6,0-3.2-.06-4.8-.05a6.47,6.47,0,0,0-1.24.24Z"></path><path class="wdt-cus-8-arrow-icon-cl-7" d="M56.72,57.89a10.23,10.23,0,0,1,.73-1,3.64,3.64,0,0,1,.5-.46c1.11,1.06,2.23,2.08,3.3,3.14q4.29,4.26,8.55,8.54c2.78,2.79,5.54,5.58,8.31,8.37.62.62,1.24,1.24,1.88,1.84.15.14.45.31.55.25A.88.88,0,0,0,81,78c.05-.61,0-1.23,0-1.85,0-1.08-.06-2.16-.09-3.23a1,1,0,0,1,.8-1.16.68.68,0,0,1,.2,0c.77-.06,1,.44,1,1,.13,3,.23,6.07.33,9.1,0,.8-.5,1.12-1.2,1.11-3,0-6.07-.13-9.1-.2a.88.88,0,0,1-1-1,.92.92,0,0,1,1.06-1c1.6,0,3.2.07,4.8.06a7.25,7.25,0,0,0,1.45-.33Z"></path><path class="wdt-cus-8-arrow-icon-cl-8" d="M43.52,57.88C42.44,59,41.4,60.12,40.34,61.2c-2.48,2.49-5,5-7.45,7.44l-7.23,7.24c-1.36,1.36-2.73,2.7-4.08,4.06-.13.13-.25.46-.18.56a.93.93,0,0,0,.62.38h2.35l2.74-.07a1,1,0,0,1,1.12,1.08c.05.69-.46.92-1,.94-3.1.14-6.2.27-9.3.34-.83,0-.95-.69-.94-1.34,0-1.7.09-3.39.13-5.09,0-1.27.05-2.55.06-3.82a1,1,0,0,1,.92-1.07h.17c.74,0,.93.46.92,1.1,0,1.56-.06,3.13-.05,4.7a8.86,8.86,0,0,0,.29,1.52c1.05-1,1.88-1.83,2.7-2.65L36.45,62.19c1.47-1.48,2.95-2.95,4.41-4.44C42,56.6,42.29,56.58,43.52,57.88Z"></path><path class="wdt-cus-8-arrow-icon-cl-9" d="M57.73,49.93A7.73,7.73,0,1,1,50,42.18a7.52,7.52,0,0,1,7.73,7.3Zm-2,0A5.69,5.69,0,1,0,50,55.6a5.51,5.51,0,0,0,5.72-5.29v-.38Z"></path></svg>