<svg xmlns="http://www.w3.org/2000/svg" xmlns:xlink="http://www.w3.org/1999/xlink" viewBox="0 0 100 100"><defs><style>.wdt-cus-interaction-cl-1{fill:url(#wdt-cus-interaction-01);}.wdt-cus-interaction-cl-2{fill:url(#wdt-cus-interaction-012);}.wdt-cus-interaction-cl-3{fill:url(#wdt-cus-interaction-013);}.wdt-cus-interaction-cl-4{fill:url(#wdt-cus-interaction-014);}</style><linearGradient id="wdt-cus-interaction-01" x1="34.32" y1="24.69" x2="81.63" y2="24.69" gradientUnits="userSpaceOnUse"><stop offset="0" stop-color="#6b4aca"></stop><stop offset="1" stop-color="#884eaa"></stop></linearGradient><linearGradient id="wdt-cus-interaction-012" x1="42.83" y1="24.08" x2="73.54" y2="24.08" xlink:href="#wdt-cus-interaction-01"></linearGradient><linearGradient id="wdt-cus-interaction-013" x1="50.39" y1="22.7" x2="65.29" y2="22.7" xlink:href="#wdt-cus-interaction-01"></linearGradient><linearGradient id="wdt-cus-interaction-014" x1="18.37" y1="61.94" x2="62.96" y2="61.94" xlink:href="#wdt-cus-interaction-01"></linearGradient></defs><path class="wdt-cus-interaction-cl-1" d="M65.67,48.39a1,1,0,0,1-1-1,1,1,0,0,1,.56-.88c9.11-4.27,14-11,14.38-19.87.59-12-6.47-20.91-18.42-23.28-8.72-1.73-20,3-23.73,15.17-2.65,8.66-.69,16.4,5.83,23a1,1,0,0,1-1.42,1.41c-7.08-7.17-9.21-15.57-6.32-25C39.65,4.63,52-.52,61.59,1.38c13,2.58,20.68,12.29,20,25.34-.48,9.71-5.7,17-15.54,21.58A1,1,0,0,1,65.67,48.39Z"></path><path class="wdt-cus-interaction-cl-2" d="M65.2,38.5a1,1,0,0,1-.45-1.89,13,13,0,0,0,5.51-16.94c-2.71-5.52-9.16-10.08-16.91-7.06A13.11,13.11,0,0,0,45.43,21a14.23,14.23,0,0,0,1.81,12.19,13.81,13.81,0,0,0,2.32,2.45c.44.39.87.78,1.28,1.19a1,1,0,0,1-1.41,1.41c-.39-.38-.8-.75-1.21-1.12a15.4,15.4,0,0,1-2.64-2.83,16.15,16.15,0,0,1-2-13.9,15.08,15.08,0,0,1,9.09-9.61C61.6,7.3,69,12.5,72.1,18.78c3.45,7,.46,16.19-6.4,19.62A1,1,0,0,1,65.2,38.5Z"></path><path class="wdt-cus-interaction-cl-3" d="M51.54,28.15a1,1,0,0,1-1-.85c-.79-5.27,1.65-8.73,7-10a1,1,0,0,1,.58,0c6.17,2.26,7.62,4.3,7.06,9.92a1,1,0,1,1-2-.2c.45-4.57-.42-5.85-5.48-7.74-4.2,1.08-5.87,3.53-5.24,7.69a1,1,0,0,1-.84,1.14h0Z"></path><path class="wdt-cus-interaction-cl-4" d="M57.05,24.91a1,1,0,0,0-.34,0c-4.07.89-4.43,4.67-4.35,7.44.11,3.82.13,7.71.11,11.54-2.7-1.43-4.87-1.69-6.45-.78a5,5,0,0,0-2.24,3.53c-3-1.34-5-1.51-6.52-.58a4.35,4.35,0,0,0-1.77,2.53l-3.77-1.93a1,1,0,0,0-1.11.13l-4.2,3.6-6.11-.32a1,1,0,0,0-1,.84,77,77,0,0,0-.68,14.48c.05,3.18.1,6.18-.11,9.22-.67,9.39,1,17,5.19,23.9a1,1,0,0,0,.86.48H56.25a1,1,0,0,0,.93-.64c.51-1.33,1-2.62,1.52-3.89,1.29-3.29,2.5-6.4,3.63-9.57a13.73,13.73,0,0,0,.55-4.55V63.49c0-10.06,0-20.47.07-30.69C63,29.79,63,25.66,57.05,24.91ZM60.89,63.5V80.34a11.88,11.88,0,0,1-.44,3.89c-1.11,3.14-2.32,6.23-3.6,9.51-.42,1.07-.85,2.15-1.28,3.26H25.09c-3.77-6.42-5.24-13.5-4.62-22.24.23-3.12.17-6.31.12-9.39a81.34,81.34,0,0,1,.51-13.24l4.63.24L26.54,63a1,1,0,0,0,2-.15L27.7,51.93h0l3.68-3.17,3.68,1.89h0q-.08,1-.06,1.92v6.59a1,1,0,0,0,2,0V52.57c0-2.64.45-4.26,1.31-4.81s2.65-.24,5.2,1V63a1,1,0,0,0,2,0V49.32c0-1.64.31-3.74,1.52-4.44,1-.58,2.73-.21,5,1.06a.85.85,0,0,0,.47.13v9.35a1,1,0,0,0,2,0V48.74c0-5.38.06-10.94-.1-16.41-.12-4.06,1.16-5,2.61-5.39,3.63.51,4,2.28,4,5.88C60.88,43,60.88,53.43,60.89,63.5Z"></path></svg>