<svg xmlns="http://www.w3.org/2000/svg" xmlns:xlink="http://www.w3.org/1999/xlink" viewBox="0 0 100 100"><defs><style>.wdt-cus-glass-cl-1{fill:url(#wdt-cus-glass-01);}.wdt-cus-glass-cl-2{fill:url(#wdt-cus-glass-02);}.wdt-cus-glass-cl-3{fill:url(#wdt-cus-glass-03);}.wdt-cus-glass-cl-4{fill:url(#wdt-cus-glass-04);}.wdt-cus-glass-cl-5{fill:url(#wdt-cus-glass-05);}</style><linearGradient id="wdt-cus-glass-01" x1="3.7" y1="27.62" x2="96.38" y2="27.62" gradientUnits="userSpaceOnUse"><stop offset="0" stop-color="#6b4aca"></stop><stop offset="1" stop-color="#884eaa"></stop></linearGradient><linearGradient id="wdt-cus-glass-02" x1="10.24" y1="77.93" x2="90.23" y2="77.93" xlink:href="#wdt-cus-glass-01"></linearGradient><linearGradient id="wdt-cus-glass-03" x1="29.48" y1="31.55" x2="70.68" y2="31.55" xlink:href="#wdt-cus-glass-01"></linearGradient><linearGradient id="wdt-cus-glass-04" x1="9.77" y1="37.07" x2="16.6" y2="37.07" xlink:href="#wdt-cus-glass-01"></linearGradient><linearGradient id="wdt-cus-glass-05" x1="83.56" y1="37.1" x2="90.27" y2="37.1" xlink:href="#wdt-cus-glass-01"></linearGradient></defs><path class="wdt-cus-glass-cl-1" d="M96.15,29.37c-.25-10.11-3.28-12.64-13.21-10.89-1.84.34-2.56.11-3.53-1.59C69.68,0,46.48-5.21,30.56,5.81c-3.47,2.39-6.6,5.26-8.27,9.12-1.49,3.41-3.16,4.22-6.89,3.32C8.38,16.57,4.49,19.8,4.07,27c-.2,3.36,0,6.76,0,10.15H3.79c0,2.31.18,4.63,0,6.93-.93,10,5.85,12.22,13.08,10.74A113.6,113.6,0,0,1,37,52.35a13.84,13.84,0,0,0,9-3c3.3-2.73,6.71-2.59,10.09,0,1.46,1.11,2.92,2.54,4.8,2.65,8.91.54,17.67,2.38,26.54,3.15,5.65.49,8.9-3,8.94-8.68S96.28,35.07,96.15,29.37ZM23.9,16.11A25.68,25.68,0,0,1,43.51,3C56.22,1.35,67.93,3,75.84,14.73c2.94,4.33,2.73,4.6-2.28,5.45a129.19,129.19,0,0,1-23.48,1.76,164.66,164.66,0,0,1-24.4-1.78C22,19.67,22.59,18.35,23.9,16.11Zm62,37.06A193.87,193.87,0,0,0,63,50.3c-2.47-.1-4.29-1.52-6.17-2.88-4-2.89-8-3-11.89.08a13.11,13.11,0,0,1-8.08,2.83A151.94,151.94,0,0,0,15.39,53c-6.68,1.19-9.47-1.22-9.54-8.08V37.07c.18-3.7.29-6.93.49-10.16.37-6,3.06-8.11,9.26-6.72a149.78,149.78,0,0,0,25.56,3.56,155.68,155.68,0,0,0,43.1-3.53c6.55-1.53,9.29.68,9.54,7.36.25,6.15.46,12.32.43,18.47,0,5.4-3,8-8.32,7.12Z"></path><path class="wdt-cus-glass-cl-2" d="M90.23,99.89c-10.6,1.3-23.18-8.76-25.24-20.33-.68-3.74-1.57-4.29-5.19-3.18-7.72,2.37-15.53,1.6-23.13-1C33.18,91,20.81,102.49,10.24,99.52c1.64-1.42,3.54-1.29,5.18-1.81C25.57,94.56,31.91,88,34,77.4c.44-2.25,0-3.66-2.06-5A24.93,24.93,0,0,1,21.48,58.77c-.26-.78-1.54-2.14.12-2.71s1.45,1.1,1.78,2c7.17,20.5,34.4,22,46.63,10.59a25.21,25.21,0,0,0,7.18-11.12c.24-.78.53-2.07,1.75-1.57s.52,1.53.24,2.38c-1.79,5.43-4.83,10.15-9.62,13.19-3.42,2.18-3.38,4.81-2.54,7.87,2.67,9.76,9.06,15.8,18.79,18.43C87.2,98.22,88.89,98,90.23,99.89Z"></path><path class="wdt-cus-glass-cl-3" d="M65.34,27.39c-5.08.06-10.17,0-15.25,0s-10.17.05-15.26,0c-3,0-5.37.85-5.35,4.22,0,3.11,2.31,4.1,5.08,4.1h31c2.74,0,5.07-.92,5.12-4C70.71,28.28,68.36,27.36,65.34,27.39Zm-.52,6.34H35.31c-1.7,0-3.74.09-3.7-2.32.05-2.06,1.88-2.08,3.46-2.08h30c1.57,0,3.41,0,3.46,2.07C68.57,33.81,66.53,33.72,64.82,33.73Z"></path><path class="wdt-cus-glass-cl-4" d="M15.7,46.92c-1,.13-1.33-.66-1.52-1.39-1.42-5.5-2.8-11-4.4-17.3,0,0-.15-.8,1-1s1.21.64,1.4,1.41q2.14,8.27,4.3,16.52C16.66,46,16.8,46.78,15.7,46.92Z"></path><path class="wdt-cus-glass-cl-5" d="M90,29.39q-2,8.1-4,16.11c-.2.74-.54,1.59-1.5,1.41-1.46-.26-.84-1.3-.63-2.14q2-7.8,4.07-15.61c.21-.83.09-2.05,1.46-1.87S90,28.63,90,29.39Z"></path></svg>